<?xml version="1.0" encoding="UTF-8" standalone="no"?>
<!-- Created with Inkscape (http://www.inkscape.org/) -->

<svg
   xmlns:dc="http://purl.org/dc/elements/1.1/"
   xmlns:cc="http://creativecommons.org/ns#"
   xmlns:rdf="http://www.w3.org/1999/02/22-rdf-syntax-ns#"
   xmlns:svg="http://www.w3.org/2000/svg"
   xmlns="http://www.w3.org/2000/svg"
   xmlns:sodipodi="http://sodipodi.sourceforge.net/DTD/sodipodi-0.dtd"
   xmlns:inkscape="http://www.inkscape.org/namespaces/inkscape"
   version="1.1"
   id="svg1156"
   width="97.011993"
   height="137.9677"
   viewBox="0 0 97.01199 137.9677"
   sodipodi:docname="headphones.svg"
   inkscape:version="0.92.5 (2060ec1f9f, 2020-04-08)"
   inkscape:export-filename="/home/ANT.AMAZON.COM/shayagr/.config/awesome/volume-control/headphones.png"
   inkscape:export-xdpi="95.988129"
   inkscape:export-ydpi="95.988129">
  <metadata
     id="metadata1162">
    <rdf:RDF>
      <cc:Work
         rdf:about="">
        <dc:format>image/svg+xml</dc:format>
        <dc:type
           rdf:resource="http://purl.org/dc/dcmitype/StillImage" />
        <dc:title></dc:title>
      </cc:Work>
    </rdf:RDF>
  </metadata>
  <defs
     id="defs1160" />
  <sodipodi:namedview
     pagecolor="#ffffff"
     bordercolor="#666666"
     borderopacity="1"
     objecttolerance="10"
     gridtolerance="10"
     guidetolerance="10"
     inkscape:pageopacity="0"
     inkscape:pageshadow="2"
     inkscape:window-width="3432"
     inkscape:window-height="1347"
     id="namedview1158"
     showgrid="false"
     inkscape:zoom="3.1841449"
     inkscape:cx="-1.6757615"
     inkscape:cy="34.604007"
     inkscape:window-x="0"
     inkscape:window-y="48"
     inkscape:window-maximized="0"
     inkscape:current-layer="svg1156"
     fit-margin-top="0"
     fit-margin-left="0"
     fit-margin-right="0"
     fit-margin-bottom="0" />
  <path
     style="fill:#c5e1e8;fill-opacity:1;stroke:#2f707e;stroke-width:0.08758435;stroke-miterlimit:4;stroke-dasharray:none;stroke-dashoffset:0;stroke-opacity:1"
     d="M 48.461968,0.04379217 A 46.273703,68.052896 0 0 0 2.1881459,68.096792 a 46.273703,68.052896 0 0 0 1.3675107,16.0843 30.996661,13.450049 80.176702 0 1 2.1325952,-1.7086 30.996661,13.450049 80.176702 0 1 4.4203142,-0.4673 39.542803,58.154029 0 0 1 -1.1894592,-13.9084 39.542803,58.154029 0 0 1 39.5428612,-58.1538998 39.542803,58.154029 0 0 1 39.542698,58.1538998 39.542803,58.154029 0 0 1 -0.762078,11.3002 13.450049,30.996661 9.8232973 0 1 4.25248,0.5165 13.450049,30.996661 9.8232973 0 1 2.24705,1.8491 46.273703,68.052896 0 0 0 0.993503,-13.6658 A 46.273703,68.052896 0 0 0 48.461968,0.04379217 Z"
     id="path1758"
     inkscape:connector-curvature="0"
     inkscape:export-xdpi="56"
     inkscape:export-ydpi="56" />
  <ellipse
     style="fill:#e48eab;fill-opacity:1;stroke:#2f707e;stroke-width:0.10658325;stroke-miterlimit:4;stroke-dasharray:none;stroke-dashoffset:0;stroke-opacity:1"
     id="path1709"
     cx="-11.095057"
     cy="104.65582"
     rx="14.005597"
     ry="30.749634"
     transform="matrix(0.88414951,-0.46720407,0.23056465,0.97305701,0,0)"
     inkscape:export-xdpi="56"
     inkscape:export-ydpi="56" />
  <ellipse
     transform="matrix(-0.88414951,-0.46720407,-0.23056465,0.97305701,0,0)"
     ry="30.749634"
     rx="14.005597"
     cy="58.069118"
     cx="-108.6699"
     id="ellipse1726"
     style="fill:#e48eab;fill-opacity:1;stroke:#2f707e;stroke-width:0.10658324;stroke-miterlimit:4;stroke-dasharray:none;stroke-dashoffset:0;stroke-opacity:1"
     inkscape:export-xdpi="56"
     inkscape:export-ydpi="56" />
  <ellipse
     style="fill:#dadada;fill-opacity:1;stroke:#2f707e;stroke-width:0.09529811;stroke-miterlimit:4;stroke-dasharray:none;stroke-dashoffset:0;stroke-opacity:1"
     id="ellipse1760"
     cx="-108.6699"
     cy="58.069118"
     rx="12.522674"
     ry="27.493837"
     transform="matrix(-0.88414951,-0.46720407,-0.23056465,0.97305701,0,0)"
     inkscape:export-xdpi="56"
     inkscape:export-ydpi="56" />
  <ellipse
     transform="matrix(0.88414951,-0.46720407,0.23056465,0.97305701,0,0)"
     ry="27.493839"
     rx="12.522674"
     cy="104.65582"
     cx="-11.095057"
     id="ellipse1762"
     style="fill:#dadada;fill-opacity:1;stroke:#2f707e;stroke-width:0.09529811;stroke-miterlimit:4;stroke-dasharray:none;stroke-dashoffset:0;stroke-opacity:1"
     inkscape:export-xdpi="56"
     inkscape:export-ydpi="56" />
</svg>
