<?xml version="1.0" encoding="UTF-8" standalone="no"?>
<svg
   xmlns:dc="http://purl.org/dc/elements/1.1/"
   xmlns:cc="http://creativecommons.org/ns#"
   xmlns:rdf="http://www.w3.org/1999/02/22-rdf-syntax-ns#"
   xmlns:svg="http://www.w3.org/2000/svg"
   xmlns="http://www.w3.org/2000/svg"
   xmlns:sodipodi="http://sodipodi.sourceforge.net/DTD/sodipodi-0.dtd"
   xmlns:inkscape="http://www.inkscape.org/namespaces/inkscape"
   viewBox="0 0 40 40"
   version="1.1"
   id="svg7"
   sodipodi:docname="slack.svg"
   inkscape:version="0.92.3 (2405546, 2018-03-11)">
  <metadata
     id="metadata13">
    <rdf:RDF>
      <cc:Work
         rdf:about="">
        <dc:format>image/svg+xml</dc:format>
        <dc:type
           rdf:resource="http://purl.org/dc/dcmitype/StillImage" />
      </cc:Work>
    </rdf:RDF>
  </metadata>
  <defs
     id="defs11" />
  <sodipodi:namedview
     pagecolor="#ffffff"
     bordercolor="#666666"
     borderopacity="1"
     objecttolerance="10"
     gridtolerance="10"
     guidetolerance="10"
     inkscape:pageopacity="0"
     inkscape:pageshadow="2"
     inkscape:window-width="1896"
     inkscape:window-height="979"
     id="namedview9"
     showgrid="false"
     inkscape:zoom="5.9"
     inkscape:cx="-8.1355932"
     inkscape:cy="26.779661"
     inkscape:window-x="8"
     inkscape:window-y="48"
     inkscape:window-maximized="0"
     inkscape:current-layer="svg7" />
  <title
     id="title2" />
  <g
     id="Slack"
     style="fill:#ffffff;fill-opacity:1;stroke:none;stroke-opacity:1"
     transform="matrix(1.3710816,0,0,1.3710816,-8.0220235,-7.1676725)">
    <path
       d="M 13,23.17 A 2.52,2.52 0 1 1 10.48,20.64 H 13 Z m 1.27,6.31 a 2.53,2.53 0 0 0 5,0 v -6.31 a 2.53,2.53 0 1 0 -5,0 z m 5,-16.44 V 10.52 A 2.53,2.53 0 1 0 16.83,13 Z m -8.84,1.27 a 2.53,2.53 0 0 0 0,5 h 6.31 a 2.53,2.53 0 1 0 0,-5 z m 16.44,5 h 2.52 A 2.53,2.53 0 1 0 27,16.83 Z M 25.6,10.47 a 2.53,2.53 0 0 0 -5.05,0 v 6.31 a 2.53,2.53 0 1 0 5.05,0 z M 20.64,27 v 2.52 A 2.53,2.53 0 1 0 23.17,27 Z m 8.84,-1.27 a 2.53,2.53 0 0 0 0,-5.05 h -6.31 a 2.53,2.53 0 1 0 0,5.05 z"
       id="path4"
       style="fill:#ffffff;fill-opacity:1;stroke:none;stroke-opacity:1"
       inkscape:connector-curvature="0" />
  </g>
</svg>
