<?xml version="1.0" encoding="UTF-8" standalone="no"?>
<svg
   xmlns:dc="http://purl.org/dc/elements/1.1/"
   xmlns:cc="http://creativecommons.org/ns#"
   xmlns:rdf="http://www.w3.org/1999/02/22-rdf-syntax-ns#"
   xmlns:svg="http://www.w3.org/2000/svg"
   xmlns="http://www.w3.org/2000/svg"
   xmlns:sodipodi="http://sodipodi.sourceforge.net/DTD/sodipodi-0.dtd"
   xmlns:inkscape="http://www.inkscape.org/namespaces/inkscape"
   viewBox="0 0 32 32"
   version="1.1"
   id="svg13"
   sodipodi:docname="spotify.svg"
   inkscape:version="0.92.3 (2405546, 2018-03-11)">
  <metadata
     id="metadata19">
    <rdf:RDF>
      <cc:Work
         rdf:about="">
        <dc:format>image/svg+xml</dc:format>
        <dc:type
           rdf:resource="http://purl.org/dc/dcmitype/StillImage" />
      </cc:Work>
    </rdf:RDF>
  </metadata>
  <defs
     id="defs17" />
  <sodipodi:namedview
     pagecolor="#ffffff"
     bordercolor="#666666"
     borderopacity="1"
     objecttolerance="10"
     gridtolerance="10"
     guidetolerance="10"
     inkscape:pageopacity="0"
     inkscape:pageshadow="2"
     inkscape:window-width="1896"
     inkscape:window-height="979"
     id="namedview15"
     showgrid="false"
     inkscape:zoom="7.375"
     inkscape:cx="-6.5084746"
     inkscape:cy="16"
     inkscape:window-x="8"
     inkscape:window-y="48"
     inkscape:window-maximized="0"
     inkscape:current-layer="svg13" />
  <title
     id="title2" />
  <g
     data-name="spotify music podcast audio"
     id="spotify_music_podcast_audio"
     style="fill:#ffffff;fill-opacity:1"
     transform="matrix(1.0729656,0,0,1.0886571,-1.132952,-0.43546178)">
    <path
       d="M 16,3 A 13,13 0 0 0 10.55,27.81 1,1 0 1 0 11.39,26 11,11 0 1 1 16,27 1,1 0 0 0 16,29 13,13 0 0 0 16,3 Z"
       id="path4"
       style="fill:#ffffff;fill-opacity:1"
       inkscape:connector-curvature="0" />
    <path
       d="m 23.1,14.57 a 1,1 0 0 0 0.49,0.13 1,1 0 0 0 0.49,-1.87 C 20.08,10.56 14.84,9.99 8.52,11.1 a 1,1 0 0 0 -0.81,1.16 1,1 0 0 0 1.16,0.81 C 14.72,12 19.5,12.54 23.1,14.57 Z"
       id="path6"
       style="fill:#ffffff;fill-opacity:1"
       inkscape:connector-curvature="0" />
    <path
       d="m 9.66,17 c 4.88,-1.08 8.86,-0.56 11.85,1.54 a 1,1 0 0 0 0.58,0.19 1,1 0 0 0 0.82,-0.43 1,1 0 0 0 -0.24,-1.39 c -3.47,-2.45 -8,-3.07 -13.44,-1.87 a 1.0228514,1.0228514 0 0 0 0.43,2 z"
       id="path8"
       style="fill:#ffffff;fill-opacity:1"
       inkscape:connector-curvature="0" />
    <path
       d="m 10.52,20.79 c 3.8,-0.77 6.89,-0.4 9.2,1.09 a 1,1 0 0 0 0.54,0.16 1,1 0 0 0 0.54,-1.84 C 18,18.41 14.45,18 10.13,18.83 a 1.0188351,1.0188351 0 1 0 0.39,2 z"
       id="path10"
       style="fill:#ffffff;fill-opacity:1"
       inkscape:connector-curvature="0" />
  </g>
</svg>
