<?xml version="1.0" encoding="UTF-8" standalone="no"?>
<svg
   xmlns:dc="http://purl.org/dc/elements/1.1/"
   xmlns:cc="http://creativecommons.org/ns#"
   xmlns:rdf="http://www.w3.org/1999/02/22-rdf-syntax-ns#"
   xmlns:svg="http://www.w3.org/2000/svg"
   xmlns="http://www.w3.org/2000/svg"
   xmlns:sodipodi="http://sodipodi.sourceforge.net/DTD/sodipodi-0.dtd"
   xmlns:inkscape="http://www.inkscape.org/namespaces/inkscape"
   viewBox="0 0 32 32"
   version="1.1"
   id="svg9"
   sodipodi:docname="email_modified.svg"
   inkscape:version="0.92.3 (2405546, 2018-03-11)">
  <metadata
     id="metadata15">
    <rdf:RDF>
      <cc:Work
         rdf:about="">
        <dc:format>image/svg+xml</dc:format>
        <dc:type
           rdf:resource="http://purl.org/dc/dcmitype/StillImage" />
        <dc:title />
      </cc:Work>
    </rdf:RDF>
  </metadata>
  <defs
     id="defs13" />
  <sodipodi:namedview
     pagecolor="#ffffff"
     bordercolor="#666666"
     borderopacity="1"
     objecttolerance="10"
     gridtolerance="10"
     guidetolerance="10"
     inkscape:pageopacity="0"
     inkscape:pageshadow="2"
     inkscape:window-width="1896"
     inkscape:window-height="979"
     id="namedview11"
     showgrid="false"
     inkscape:zoom="14.75"
     inkscape:cx="27.696522"
     inkscape:cy="14.375015"
     inkscape:window-x="8"
     inkscape:window-y="48"
     inkscape:window-maximized="0"
     inkscape:current-layer="svg9"
     inkscape:pagecheckerboard="true" />
  <g
     style="fill:#ffffff;fill-opacity:1;stroke:none;stroke-opacity:1"
     transform="matrix(1.083442,0,0,1.083442,-1.335072,1.7105606)"
     id="g2069"
     data-name="mail email e-mail letter">
    <path
       style="fill:#e7b147;fill-opacity:1;stroke:none;stroke-opacity:1"
       inkscape:connector-curvature="0"
       id="path2065"
       d="m 28,13 a 1,1 0 0 0 -1,1 v 8 a 1,1 0 0 1 -1,1 H 6 A 1,1 0 0 1 5,22 v -8 a 1,1 0 0 0 -2,0 v 8 A 3,3 0 0 0 3.88,24.12 3,3 0 0 0 6,25 H 26 A 3,3 0 0 0 28.12,24.12 3,3 0 0 0 29,22 v -8 a 1,1 0 0 0 -1,-1 z" />
    <path
       style="fill:#efca83;fill-opacity:1;stroke:none;stroke-opacity:1"
       inkscape:connector-curvature="0"
       id="path2067"
       d="m 15.4,18.8 a 1,1 0 0 0 1.2,0 L 28.41,9.94 A 1,1 0 0 0 28.71,8.71 3.06,3.06 0 0 0 28.12,7.88 3,3 0 0 0 26,7 H 6 A 3,3 0 0 0 3.88,7.88 3.06,3.06 0 0 0 3.29,8.71 1,1 0 0 0 3.59,9.94 Z M 6,9 h 20 a 0.9,0.9 0 0 1 0.28,0 L 16,16.75 5.72,9 A 0.9,0.9 0 0 1 6,9 Z" />
  </g>
</svg>
