<?xml version="1.0" encoding="UTF-8" standalone="no"?>
<svg
   xmlns:dc="http://purl.org/dc/elements/1.1/"
   xmlns:cc="http://creativecommons.org/ns#"
   xmlns:rdf="http://www.w3.org/1999/02/22-rdf-syntax-ns#"
   xmlns:svg="http://www.w3.org/2000/svg"
   xmlns="http://www.w3.org/2000/svg"
   xmlns:xlink="http://www.w3.org/1999/xlink"
   xmlns:sodipodi="http://sodipodi.sourceforge.net/DTD/sodipodi-0.dtd"
   xmlns:inkscape="http://www.inkscape.org/namespaces/inkscape"
   version="1.1"
   width="240"
   height="240"
   viewBox="0 0 24 24"
   id="svg897"
   sodipodi:docname="google-chrome_modified.svg"
   inkscape:version="0.92.3 (2405546, 2018-03-11)">
  <metadata
     id="metadata903">
    <rdf:RDF>
      <cc:Work
         rdf:about="">
        <dc:format>image/svg+xml</dc:format>
        <dc:type
           rdf:resource="http://purl.org/dc/dcmitype/StillImage" />
        <dc:title />
      </cc:Work>
    </rdf:RDF>
  </metadata>
  <defs
     id="defs901">
    <linearGradient
       inkscape:collect="always"
       id="linearGradient4752">
      <stop
         style="stop-color:#2eb006;stop-opacity:1;"
         offset="0"
         id="stop4748" />
      <stop
         style="stop-color:#9dfb7f;stop-opacity:1"
         offset="1"
         id="stop4750" />
    </linearGradient>
    <linearGradient
       inkscape:collect="always"
       id="linearGradient4744">
      <stop
         style="stop-color:#dfd82b;stop-opacity:1;"
         offset="0"
         id="stop4740" />
      <stop
         style="stop-color:#f3f1ba;stop-opacity:1"
         offset="1"
         id="stop4742" />
    </linearGradient>
    <linearGradient
       inkscape:collect="always"
       id="linearGradient4736">
      <stop
         style="stop-color:#e04e4e;stop-opacity:1;"
         offset="0"
         id="stop4732" />
      <stop
         style="stop-color:#ea8b8b;stop-opacity:1"
         offset="1"
         id="stop4734" />
    </linearGradient>
    <linearGradient
       inkscape:collect="always"
       id="linearGradient4728">
      <stop
         style="stop-color:#6c51c7;stop-opacity:1;"
         offset="0"
         id="stop4724" />
      <stop
         style="stop-color:#a999de;stop-opacity:1"
         offset="1"
         id="stop4726" />
    </linearGradient>
    <radialGradient
       inkscape:collect="always"
       xlink:href="#linearGradient4728"
       id="radialGradient4730"
       cx="363.63202"
       cy="152.25247"
       fx="363.63202"
       fy="152.25247"
       r="43.36133"
       gradientTransform="matrix(0.53081231,-1.2668939,2.166817,0.90786853,-149.30502,475.16272)"
       gradientUnits="userSpaceOnUse" />
    <radialGradient
       inkscape:collect="always"
       xlink:href="#linearGradient4736"
       id="radialGradient4738"
       cx="360.10779"
       cy="89.484863"
       fx="360.10779"
       fy="89.484863"
       r="89.254885"
       gradientTransform="matrix(1.2462138,-1.6491032,1.3634282,1.0303315,-191.99712,599.70155)"
       gradientUnits="userSpaceOnUse" />
    <radialGradient
       inkscape:collect="always"
       xlink:href="#linearGradient4744"
       id="radialGradient4746"
       cx="411.00714"
       cy="139.6183"
       fx="411.00714"
       fy="139.6183"
       r="49.81543"
       gradientTransform="matrix(-0.63490953,2.7206333,-1.9452901,-0.4539691,943.55763,-919.19609)"
       gradientUnits="userSpaceOnUse" />
    <radialGradient
       inkscape:collect="always"
       xlink:href="#linearGradient4752"
       id="radialGradient4754"
       cx="347.20737"
       cy="154.4247"
       fx="347.20737"
       fy="154.4247"
       r="99.91211"
       gradientTransform="matrix(-0.76976002,-0.63833339,0.92212657,-1.1119835,472.0746,547.76707)"
       gradientUnits="userSpaceOnUse" />
  </defs>
  <sodipodi:namedview
     pagecolor="#ffffff"
     bordercolor="#666666"
     borderopacity="1"
     objecttolerance="10"
     gridtolerance="10"
     guidetolerance="10"
     inkscape:pageopacity="0"
     inkscape:pageshadow="2"
     inkscape:window-width="1896"
     inkscape:window-height="979"
     id="namedview899"
     showgrid="false"
     inkscape:pagecheckerboard="true"
     inkscape:zoom="1.2536414"
     inkscape:cx="298.81484"
     inkscape:cy="161.55491"
     inkscape:window-x="8"
     inkscape:window-y="48"
     inkscape:window-maximized="0"
     inkscape:current-layer="svg897" />
  <g
     id="g9288"
     transform="translate(-26)">
    <path
       transform="scale(0.1)"
       id="path941"
       d="m 386.51562,20.230469 c 0.24438,0.01618 0.49038,0.02306 0.73438,0.04102 a 100,100 0 0 0 -0.73438,-0.04102 z m -16.12695,0.25 a 100,100 0 0 0 -0.57812,0.05078 c 0.19206,-0.01987 0.38582,-0.03202 0.57812,-0.05078 z m 25.9336,0.892578 c 0.39184,0.06524 0.78521,0.125489 1.17578,0.195312 a 100,100 0 0 0 -1.17578,-0.195312 z m -35.54297,0.523437 a 100,100 0 0 0 -1.125,0.220704 c 0.37368,-0.07811 0.75009,-0.146817 1.125,-0.220704 z m 45.16601,1.566407 c 0.53466,0.144347 1.06805,0.29227 1.59961,0.445312 a 100,100 0 0 0 -1.59961,-0.445312 z m -54.52929,0.755859 a 100,100 0 0 0 -1.85938,0.572266 c 0.61701,-0.198142 1.23797,-0.385977 1.85938,-0.572266 z m 63.96679,2.294922 c 0.6525,0.247886 1.29876,0.510236 1.94531,0.771484 a 100,100 0 0 0 -1.94531,-0.771484 z m -73.09375,0.93164 a 100,100 0 0 0 -2.45312,1.039063 c 0.8126,-0.357822 1.63061,-0.702738 2.45312,-1.039063 z m 81.79688,2.863282 c 0.89568,0.441563 1.78256,0.899335 2.66406,1.367187 a 100,100 0 0 0 -2.66406,-1.367187 z m -90.54688,1.21875 a 100,100 0 0 0 -2.98242,1.634765 c 0.98463,-0.562012 1.97902,-1.106385 2.98242,-1.634765 z m 98.93555,3.433594 c 1.05032,0.649565 2.08769,1.319851 3.11328,2.007812 a 100,100 0 0 0 -3.11328,-2.007812 z m -107.27734,1.486328 a 100,100 0 0 0 -3.31446,2.27539 c 1.08992,-0.780783 2.19472,-1.539433 3.31446,-2.27539 z m 115.36132,4.076172 c 1.09999,0.839508 2.18089,1.704623 3.2461,2.589843 a 100,100 0 0 0 -3.2461,-2.589843 z m -123.23047,1.662109 c -1.17482,0.947746 -2.3283,1.922122 -3.46093,2.923828 a 100,100 0 0 1 3.46093,-2.923828 z m 130.83008,4.75 a 100,100 0 0 1 3.20508,3.146484 c -1.04834,-1.071334 -2.11191,-2.125426 -3.20508,-3.146484 z M 310.02734,48.6875 c -1.17636,1.155992 -2.32621,2.341907 -3.44726,3.558594 a 100,100 0 0 1 3.44726,-3.558594 z m 144.8086,5.121094 a 100,100 0 0 1 3.17578,3.779297 c -1.02898,-1.287993 -2.08819,-2.548072 -3.17578,-3.779297 z m -151.43555,2.058594 c -1.16162,1.38973 -2.28748,2.813298 -3.37695,4.271484 a 100,100 0 0 1 3.37695,-4.271484 z m 157.35547,5.328124 a 100,100 0 0 1 3.08008,4.462891 c -0.98502,-1.522382 -2.01951,-3.004117 -3.08008,-4.462891 z M 297.5,63.669922 c -1.12089,1.644662 -2.19665,3.329455 -3.22461,5.050781 A 100,100 0 0 1 297.5,63.669922 Z m 82.5,1.800781 a 54.528546,54.528546 0 0 1 2.80469,0.140625 A 54.528546,54.528546 0 0 0 380,65.470703 Z m -4.63281,0.230469 a 54.528546,54.528546 0 0 0 -2.78711,0.339844 54.528546,54.528546 0 0 1 2.78711,-0.339844 z m 10.21484,0.06445 a 54.528546,54.528546 0 0 1 2.2168,0.333984 54.528546,54.528546 0 0 0 -2.2168,-0.333984 z m -15.5918,0.666016 a 54.528546,54.528546 0 0 0 -2.76367,0.621093 54.528546,54.528546 0 0 1 2.76367,-0.621093 z m 21.00391,0.167968 a 54.528546,54.528546 0 0 1 1.66211,0.423829 54.528546,54.528546 0 0 0 -1.66211,-0.423829 z m -26.31641,1.103516 a 54.528546,54.528546 0 0 0 -2.63867,0.876953 54.528546,54.528546 0 0 1 2.63867,-0.876953 z m 31.61915,0.269531 a 54.528546,54.528546 0 0 1 1.18945,0.433594 54.528546,54.528546 0 0 0 -1.18945,-0.433594 z m 69.87109,1.490235 a 100,100 0 0 1 2.91992,5.349609 c -0.92179,-1.820442 -1.8973,-3.602722 -2.91992,-5.349609 z M 359.52148,69.5 A 54.528546,54.528546 0 0 0 357.00977,70.623047 54.528546,54.528546 0 0 1 359.52148,69.5 Z m 41.90235,0.367188 a 54.528546,54.528546 0 0 1 0.86133,0.416015 54.528546,54.528546 0 0 0 -0.86133,-0.416015 z m -46.8418,1.929687 a 54.528546,54.528546 0 0 0 -2.39062,1.371094 54.528546,54.528546 0 0 1 2.39062,-1.371094 z M 292.3457,72.085938 A 100,100 0 0 0 280,120 a 100,100 0 0 0 100,100 100,100 0 0 0 3.06445,-0.1543 l -2.69531,-0.33398 27.64258,-52.09961 0.0605,-0.73047 A 54.528546,54.528546 0 0 1 380,174.5293 54.528546,54.528546 0 0 1 325.5293,121.66016 l -0.47657,0.2832 z m 113.98047,0.173828 a 54.528546,54.528546 0 0 1 0.69141,0.423828 54.528546,54.528546 0 0 0 -0.69141,-0.423828 z m -56.41992,2.308593 a 54.528546,54.528546 0 0 0 -2.28906,1.636719 54.528546,54.528546 0 0 1 2.28906,-1.636719 z m 61.06836,0.56836 a 54.528546,54.528546 0 0 1 0.40234,0.30664 54.528546,54.528546 0 0 0 -0.40234,-0.30664 z m -65.44336,2.654297 a 54.528546,54.528546 0 0 0 -2.11523,1.855468 54.528546,54.528546 0 0 1 2.11523,-1.855468 z m 69.78711,0.679687 a 54.528546,54.528546 0 0 1 3.10156,2.890625 54.528546,54.528546 0 0 0 -3.10156,-2.890625 z m -73.83789,2.980469 a 54.528546,54.528546 0 0 0 -1.9082,2.046875 54.528546,54.528546 0 0 1 1.9082,-2.046875 z m 79.13281,2.261719 a 54.528546,54.528546 0 0 1 1.49024,1.697265 54.528546,54.528546 0 0 0 -1.49024,-1.697265 z m -82.78711,1.773437 a 54.528546,54.528546 0 0 0 -1.69726,2.234375 54.528546,54.528546 0 0 1 1.69726,-2.234375 z m 86.16406,2.40625 a 54.528546,54.528546 0 0 1 1.36719,1.908203 54.528546,54.528546 0 0 0 -1.36719,-1.908203 z m -89.40039,1.980469 a 54.528546,54.528546 0 0 0 -1.44922,2.363281 54.528546,54.528546 0 0 1 1.44922,-2.363281 z m 92.38282,2.5625 a 54.528546,54.528546 0 0 1 1.17578,2.052734 54.528546,54.528546 0 0 0 -1.17578,-2.052734 z m -95.16993,2.132812 a 54.528546,54.528546 0 0 0 -1.1875,2.457032 54.528546,54.528546 0 0 1 1.1875,-2.457032 z m 97.66602,2.650391 a 54.528546,54.528546 0 0 1 0.99805,2.226562 54.528546,54.528546 0 0 0 -0.99805,-2.226562 z M 329.5,99.519531 a 54.528546,54.528546 0 0 0 -0.92188,2.527349 54.528546,54.528546 0 0 1 0.92188,-2.527349 z m 101.97266,2.679689 a 54.528546,54.528546 0 0 1 0.80468,2.41992 54.528546,54.528546 0 0 0 -0.80468,-2.41992 z m -103.76563,2.4668 a 54.528546,54.528546 0 0 0 -0.67383,2.63671 54.528546,54.528546 0 0 1 0.67383,-2.63671 z m 105.27149,2.70117 a 54.528546,54.528546 0 0 1 0.57812,2.57031 54.528546,54.528546 0 0 0 -0.57812,-2.57031 z m -106.53711,2.56836 a 54.528546,54.528546 0 0 0 -0.41602,2.75976 54.528546,54.528546 0 0 1 0.41602,-2.75976 z m 107.52929,2.73633 a 54.528546,54.528546 0 0 1 0.32422,2.67187 54.528546,54.528546 0 0 0 -0.32422,-2.67187 z m -108.26562,2.66406 A 54.528546,54.528546 0 0 0 325.4707,120 a 54.528546,54.528546 0 0 1 0.23438,-4.66406 z M 434.5293,120 a 54.528546,54.528546 0 0 1 -0.16797,3.35742 A 54.528546,54.528546 0 0 0 434.5293,120 Z m 45.29492,4.95898 a 100,100 0 0 1 -0.53125,5.875 100,100 0 0 0 0.53125,-5.875 z m -45.70117,1.36524 a 54.528546,54.528546 0 0 1 -0.33985,2.25195 54.528546,54.528546 0 0 0 0.33985,-2.25195 z m -0.92188,5.45312 a 54.528546,54.528546 0 0 1 -0.48633,1.90625 54.528546,54.528546 0 0 0 0.48633,-1.90625 z m 45.56445,3.40625 a 100,100 0 0 1 -1.12109,5.82032 100,100 0 0 0 1.12109,-5.82032 z m -47.04687,1.95899 a 54.528546,54.528546 0 0 1 -0.54883,1.50195 54.528546,54.528546 0 0 0 0.54883,-1.50195 z m -2.00391,5.14844 a 54.528546,54.528546 0 0 1 -0.58984,1.21875 54.528546,54.528546 0 0 0 0.58984,-1.21875 z m 47.07032,2.54492 a 100,100 0 0 1 -1.82422,6.11133 100,100 0 0 0 1.82422,-6.11133 z m -49.58008,2.36523 a 54.528546,54.528546 0 0 1 -0.58985,0.96094 54.528546,54.528546 0 0 0 0.58985,-0.96094 z m -3,4.63867 a 54.528546,54.528546 0 0 1 -0.5293,0.69727 54.528546,54.528546 0 0 0 0.5293,-0.69727 z m 49.66015,2.40235 a 100,100 0 0 1 -2.61914,6.36523 100,100 0 0 0 2.61914,-6.36523 z m -53.11718,1.91406 a 54.528546,54.528546 0 0 1 -0.41602,0.44531 54.528546,54.528546 0 0 0 0.41602,-0.44531 z m -3.85352,3.92383 a 54.528546,54.528546 0 0 1 -0.33594,0.29297 54.528546,54.528546 0 0 0 0.33594,-0.29297 z m 53.15039,3.21289 a 100,100 0 0 1 -3.46289,6.49023 100,100 0 0 0 3.46289,-6.49023 z m -57.38086,0.30078 a 54.528546,54.528546 0 0 1 -0.22461,0.16016 54.528546,54.528546 0 0 0 0.22461,-0.16016 z m 52.66797,8.36914 a 100,100 0 0 1 -4.30273,6.42578 100,100 0 0 0 4.30273,-6.42578 z m -5.55078,8.16992 a 100,100 0 0 1 -5.1875,6.28321 100,100 0 0 0 5.1875,-6.28321 z m -6.31445,7.56641 a 100,100 0 0 1 -6.09766,6.04101 100,100 0 0 0 6.09766,-6.04101 z m -7.03711,6.91601 a 100,100 0 0 1 -6.95703,5.63282 100,100 0 0 0 6.95703,-5.63282 z m -7.70313,6.19922 a 100,100 0 0 1 -7.71484,5.0625 100,100 0 0 0 7.71484,-5.0625 z m -8.30664,5.42578 a 100,100 0 0 1 -8.39258,4.375 100,100 0 0 0 8.39258,-4.375 z m -8.80469,4.57422 a 100,100 0 0 1 -8.96484,3.58789 100,100 0 0 0 8.96484,-3.58789 z m -9.23632,3.6875 a 100,100 0 0 1 -9.4375,2.71875 100,100 0 0 0 9.4375,-2.71875 z m -9.55469,2.74805 a 100,100 0 0 1 -9.75586,1.7832 100,100 0 0 0 9.75586,-1.7832 z"
       style="fill:url(#radialGradient4754);fill-opacity:1;stroke-width:10"
       inkscape:connector-curvature="0" />
    <path
       id="path955"
       transform="scale(0.1)"
       d="M 380,76.638672 A 43.361075,43.361075 0 0 0 336.63867,120 43.361075,43.361075 0 0 0 380,163.36133 43.361075,43.361075 0 0 0 423.36133,120 43.361075,43.361075 0 0 0 380,76.638672 Z"
       style="fill:url(#radialGradient4730);fill-opacity:1;stroke-width:18.17618179"
       inkscape:connector-curvature="0" />
    <path
       id="path4662"
       transform="scale(0.1)"
       d="m 380,20 c -36.5398,0.04368 -70.14661,20.013526 -87.6543,52.085938 l 32.70703,49.857422 0.47657,-0.2832 A 54.528546,54.528546 0 0 1 325.4707,120 54.528546,54.528546 0 0 1 380,65.470703 a 54.528546,54.528546 0 0 1 35.31836,13 h 55.53711 C 454.6117,42.88912 419.11403,20.044328 380,20 Z"
       style="fill:url(#radialGradient4738);fill-opacity:1;stroke:none;stroke-width:1px;stroke-linecap:butt;stroke-linejoin:miter;stroke-opacity:1"
       inkscape:connector-curvature="0" />
    <path
       id="path4675"
       transform="scale(0.1)"
       d="M 415.31836,78.470703 A 54.528546,54.528546 0 0 1 434.5293,120 54.528546,54.528546 0 0 1 408.07227,166.68164 l -0.0605,0.73047 -27.64258,52.09961 2.69531,0.33398 A 100,100 0 0 0 480,120 100,100 0 0 0 470.85547,78.470703 Z"
       style="fill:url(#radialGradient4746);fill-opacity:1;stroke:none;stroke-width:1px;stroke-linecap:butt;stroke-linejoin:miter;stroke-opacity:0.62189056"
       inkscape:connector-curvature="0" />
  </g>
</svg>
