<?xml version="1.0" encoding="UTF-8" standalone="no"?>
<svg
   xmlns:dc="http://purl.org/dc/elements/1.1/"
   xmlns:cc="http://creativecommons.org/ns#"
   xmlns:rdf="http://www.w3.org/1999/02/22-rdf-syntax-ns#"
   xmlns:svg="http://www.w3.org/2000/svg"
   xmlns="http://www.w3.org/2000/svg"
   xmlns:xlink="http://www.w3.org/1999/xlink"
   xmlns:sodipodi="http://sodipodi.sourceforge.net/DTD/sodipodi-0.dtd"
   xmlns:inkscape="http://www.inkscape.org/namespaces/inkscape"
   version="1.1"
   width="240"
   height="240"
   viewBox="0 0 24 24"
   id="svg897"
   sodipodi:docname="google-chrome_colored.svg"
   inkscape:version="0.92.3 (2405546, 2018-03-11)">
  <metadata
     id="metadata903">
    <rdf:RDF>
      <cc:Work
         rdf:about="">
        <dc:format>image/svg+xml</dc:format>
        <dc:type
           rdf:resource="http://purl.org/dc/dcmitype/StillImage" />
        <dc:title />
      </cc:Work>
    </rdf:RDF>
  </metadata>
  <defs
     id="defs901">
    <linearGradient
       inkscape:collect="always"
       id="linearGradient4752">
      <stop
         style="stop-color:#9eb006;stop-opacity:1"
         offset="0"
         id="stop4748" />
      <stop
         style="stop-color:#9dfb7f;stop-opacity:1"
         offset="1"
         id="stop4750" />
    </linearGradient>
    <linearGradient
       inkscape:collect="always"
       id="linearGradient4744">
      <stop
         style="stop-color:#dfd82b;stop-opacity:1;"
         offset="0"
         id="stop4740" />
      <stop
         style="stop-color:#f3f1ba;stop-opacity:1"
         offset="1"
         id="stop4742" />
    </linearGradient>
    <linearGradient
       inkscape:collect="always"
       id="linearGradient4736">
      <stop
         style="stop-color:#e04e4e;stop-opacity:1;"
         offset="0"
         id="stop4732" />
      <stop
         style="stop-color:#ea8b8b;stop-opacity:1"
         offset="1"
         id="stop4734" />
    </linearGradient>
    <linearGradient
       inkscape:collect="always"
       id="linearGradient4728">
      <stop
         style="stop-color:#6c51c7;stop-opacity:1;"
         offset="0"
         id="stop4724" />
      <stop
         style="stop-color:#a999de;stop-opacity:1"
         offset="1"
         id="stop4726" />
    </linearGradient>
    <radialGradient
       inkscape:collect="always"
       xlink:href="#linearGradient4728"
       id="radialGradient4730"
       cx="363.63202"
       cy="152.25247"
       fx="363.63202"
       fy="152.25247"
       r="43.36133"
       gradientTransform="matrix(0.05308123,-0.12668939,0.2166817,0.09078685,-40.930502,47.516272)"
       gradientUnits="userSpaceOnUse" />
    <radialGradient
       inkscape:collect="always"
       xlink:href="#linearGradient4736"
       id="radialGradient4738"
       cx="360.10779"
       cy="89.484863"
       fx="360.10779"
       fy="89.484863"
       r="89.254885"
       gradientTransform="matrix(0.12462138,-0.16491032,0.13634282,0.10303315,-45.199712,59.970155)"
       gradientUnits="userSpaceOnUse" />
    <radialGradient
       inkscape:collect="always"
       xlink:href="#linearGradient4744"
       id="radialGradient4746"
       cx="411.00714"
       cy="139.6183"
       fx="411.00714"
       fy="139.6183"
       r="49.81543"
       gradientTransform="matrix(-0.06349095,0.27206333,-0.19452901,-0.04539691,68.355763,-91.919609)"
       gradientUnits="userSpaceOnUse" />
    <radialGradient
       inkscape:collect="always"
       xlink:href="#linearGradient4752"
       id="radialGradient4754"
       cx="347.20737"
       cy="154.4247"
       fx="347.20737"
       fy="154.4247"
       r="99.91211"
       gradientTransform="matrix(-0.076976,-0.06383334,0.09221266,-0.11119835,21.20746,54.776707)"
       gradientUnits="userSpaceOnUse" />
  </defs>
  <sodipodi:namedview
     pagecolor="#ffffff"
     bordercolor="#666666"
     borderopacity="1"
     objecttolerance="10"
     gridtolerance="10"
     guidetolerance="10"
     inkscape:pageopacity="0"
     inkscape:pageshadow="2"
     inkscape:window-width="1896"
     inkscape:window-height="979"
     id="namedview899"
     showgrid="false"
     inkscape:pagecheckerboard="true"
     inkscape:zoom="1.2536414"
     inkscape:cx="166.40058"
     inkscape:cy="161.55491"
     inkscape:window-x="8"
     inkscape:window-y="48"
     inkscape:window-maximized="0"
     inkscape:current-layer="svg897" />
  <path
     inkscape:connector-curvature="0"
     style="fill:url(#radialGradient4754);fill-opacity:1;stroke-width:1"
     d="m 12.651562,2.0230469 c 0.02444,0.00162 0.04904,0.00231 0.07344,0.0041 a 10,10 0 0 0 -0.07344,-0.0041 z m -1.612695,0.025 a 10,10 0 0 0 -0.05781,0.00508 c 0.01921,-0.00199 0.03858,-0.0032 0.05781,-0.00508 z m 2.59336,0.089258 c 0.03918,0.00652 0.07852,0.012549 0.117578,0.019531 a 10,10 0 0 0 -0.117578,-0.019531 z m -3.554297,0.052344 a 10,10 0 0 0 -0.1125,0.02207 c 0.037368,-0.00781 0.075009,-0.014682 0.1125,-0.02207 z m 4.516601,0.1566407 c 0.05347,0.014435 0.106805,0.029227 0.159961,0.044531 A 10,10 0 0 0 14.594531,2.3462896 Z M 9.141602,2.421875 A 10,10 0 0 0 8.955664,2.4791016 C 9.017365,2.4592874 9.079461,2.4405039 9.141602,2.421875 Z m 6.396679,0.2294922 c 0.06525,0.024789 0.129876,0.051024 0.194531,0.077148 A 10,10 0 0 0 15.538281,2.6513672 Z M 8.228906,2.7445312 A 10,10 0 0 0 7.983594,2.8484375 c 0.08126,-0.035782 0.163061,-0.070274 0.245312,-0.1039063 z m 8.179688,0.2863282 c 0.08957,0.044156 0.178256,0.089933 0.266406,0.1367187 A 10,10 0 0 0 16.408594,3.0308594 Z M 7.353906,3.1527344 A 10,10 0 0 0 7.055664,3.3162109 C 7.154127,3.2600097 7.253566,3.2055724 7.353906,3.1527344 Z m 9.893555,0.3433594 c 0.105032,0.064956 0.208769,0.1319851 0.311328,0.2007812 A 10,10 0 0 0 17.247461,3.4960938 Z M 6.519727,3.6447266 A 10,10 0 0 0 6.188281,3.8722656 C 6.297273,3.7941873 6.407753,3.7183223 6.519727,3.6447266 Z m 11.536132,0.4076172 c 0.109999,0.083951 0.218089,0.1704623 0.32461,0.2589843 A 10,10 0 0 0 18.055859,4.0523438 Z M 5.732812,4.2185547 C 5.61533,4.3133293 5.499982,4.4107669 5.386719,4.5109375 A 10,10 0 0 1 5.732812,4.2185547 Z m 13.083008,0.475 a 10,10 0 0 1 0.320508,0.3146484 C 19.031494,4.9010697 18.925137,4.7956605 18.81582,4.6935547 Z M 5.002734,4.86875 C 4.885098,4.9843492 4.770113,5.1029407 4.658008,5.2246094 A 10,10 0 0 1 5.002734,4.86875 Z m 14.48086,0.5121094 a 10,10 0 0 1 0.317578,0.3779297 C 19.698274,5.6299898 19.592353,5.5039819 19.483594,5.3808594 Z M 4.340039,5.5867188 C 4.223877,5.7256918 4.111291,5.8680486 4.002344,6.0138672 A 10,10 0 0 1 4.340039,5.5867188 Z m 15.735547,0.5328124 a 10,10 0 0 1 0.308008,0.4462891 C 20.285092,6.4135821 20.181643,6.2654086 20.075586,6.1195312 Z M 3.75,6.3669922 C 3.637911,6.5314584 3.530335,6.6999377 3.427539,6.8720703 A 10,10 0 0 1 3.75,6.3669922 Z M 12,6.5470703 A 5.4528546,5.4528546 0 0 1 12.280469,6.5611328 5.4528546,5.4528546 0 0 0 12,6.5470703 Z m -0.463281,0.023047 a 5.4528546,5.4528546 0 0 0 -0.278711,0.033984 5.4528546,5.4528546 0 0 1 0.278711,-0.033984 z m 1.021484,0.00644 a 5.4528546,5.4528546 0 0 1 0.22168,0.033398 5.4528546,5.4528546 0 0 0 -0.22168,-0.033398 z m -1.55918,0.066602 a 5.4528546,5.4528546 0 0 0 -0.276367,0.062109 5.4528546,5.4528546 0 0 1 0.276367,-0.062109 z m 2.100391,0.016797 a 5.4528546,5.4528546 0 0 1 0.166211,0.042383 5.4528546,5.4528546 0 0 0 -0.166211,-0.042383 z m -2.631641,0.1103516 a 5.4528546,5.4528546 0 0 0 -0.263867,0.087695 5.4528546,5.4528546 0 0 1 0.263867,-0.087695 z m 3.161915,0.026953 a 5.4528546,5.4528546 0 0 1 0.118945,0.043359 5.4528546,5.4528546 0 0 0 -0.118945,-0.043359 z m 6.987109,0.1490235 a 10,10 0 0 1 0.291992,0.5349609 C 20.81661,7.2992055 20.719059,7.1209775 20.616797,6.9462888 Z M 9.952148,6.95 A 5.4528546,5.4528546 0 0 0 9.700977,7.0623047 5.4528546,5.4528546 0 0 1 9.952148,6.95 Z m 4.190235,0.036719 a 5.4528546,5.4528546 0 0 1 0.08613,0.041601 5.4528546,5.4528546 0 0 0 -0.08613,-0.041601 z M 9.458203,7.1796875 A 5.4528546,5.4528546 0 0 0 9.219141,7.3167969 5.4528546,5.4528546 0 0 1 9.458203,7.1796875 Z M 3.23457,7.2085938 A 10,10 0 0 0 2,12 10,10 0 0 0 12,22 10,10 0 0 0 12.306445,21.98457 l -0.269531,-0.0334 2.764258,-5.209961 0.0061,-0.07305 A 5.4528546,5.4528546 0 0 1 12,17.45293 5.4528546,5.4528546 0 0 1 6.55293,12.166016 l -0.047657,0.02832 z m 11.398047,0.017383 a 5.4528546,5.4528546 0 0 1 0.06914,0.042383 5.4528546,5.4528546 0 0 0 -0.06914,-0.042383 z M 8.990625,7.4568359 A 5.4528546,5.4528546 0 0 0 8.761719,7.6205078 5.4528546,5.4528546 0 0 1 8.990625,7.4568359 Z m 6.106836,0.056836 a 5.4528546,5.4528546 0 0 1 0.04023,0.030664 5.4528546,5.4528546 0 0 0 -0.04023,-0.030664 z M 8.553125,7.7791016 A 5.4528546,5.4528546 0 0 0 8.341602,7.9646484 5.4528546,5.4528546 0 0 1 8.553125,7.7791016 Z m 6.978711,0.067969 A 5.4528546,5.4528546 0 0 1 15.841992,8.1361328 5.4528546,5.4528546 0 0 0 15.531836,7.8470706 Z M 8.148047,8.1451172 a 5.4528546,5.4528546 0 0 0 -0.19082,0.2046875 5.4528546,5.4528546 0 0 1 0.19082,-0.2046875 z m 7.913281,0.2261719 A 5.4528546,5.4528546 0 0 1 16.210352,8.5410156 5.4528546,5.4528546 0 0 0 16.061328,8.3712891 Z M 7.782617,8.5486328 A 5.4528546,5.4528546 0 0 0 7.612891,8.7720703 5.4528546,5.4528546 0 0 1 7.782617,8.5486328 Z m 8.616406,0.240625 A 5.4528546,5.4528546 0 0 1 16.535742,8.9800781 5.4528546,5.4528546 0 0 0 16.399023,8.7892578 Z M 7.458984,8.9873047 A 5.4528546,5.4528546 0 0 0 7.314062,9.2236328 5.4528546,5.4528546 0 0 1 7.458984,8.9873047 Z m 9.238282,0.25625 A 5.4528546,5.4528546 0 0 1 16.814844,9.4488281 5.4528546,5.4528546 0 0 0 16.697266,9.2435547 Z M 7.180273,9.4568359 a 5.4528546,5.4528546 0 0 0 -0.11875,0.2457032 5.4528546,5.4528546 0 0 1 0.11875,-0.2457032 z m 9.766602,0.2650391 a 5.4528546,5.4528546 0 0 1 0.0998,0.2226562 5.4528546,5.4528546 0 0 0 -0.0998,-0.2226562 z M 6.95,9.9519531 A 5.4528546,5.4528546 0 0 0 6.857812,10.204688 5.4528546,5.4528546 0 0 1 6.95,9.9519531 Z m 10.197266,0.2679689 a 5.4528546,5.4528546 0 0 1 0.08047,0.241992 5.4528546,5.4528546 0 0 0 -0.08047,-0.241992 z M 6.770703,10.466602 A 5.4528546,5.4528546 0 0 0 6.70332,10.730273 5.4528546,5.4528546 0 0 1 6.770703,10.466602 Z m 10.527149,0.270117 a 5.4528546,5.4528546 0 0 1 0.05781,0.257031 5.4528546,5.4528546 0 0 0 -0.05781,-0.257031 z M 6.644141,10.993555 a 5.4528546,5.4528546 0 0 0 -0.041602,0.275976 5.4528546,5.4528546 0 0 1 0.041602,-0.275976 z m 10.752929,0.273633 a 5.4528546,5.4528546 0 0 1 0.03242,0.267187 5.4528546,5.4528546 0 0 0 -0.03242,-0.267187 z M 6.570508,11.533594 A 5.4528546,5.4528546 0 0 0 6.54707,12 5.4528546,5.4528546 0 0 1 6.570508,11.533594 Z M 17.45293,12 A 5.4528546,5.4528546 0 0 1 17.43613,12.335742 5.4528546,5.4528546 0 0 0 17.45293,12 Z m 4.529492,0.495898 a 10,10 0 0 1 -0.05313,0.5875 10,10 0 0 0 0.05313,-0.5875 z m -4.570117,0.136524 a 5.4528546,5.4528546 0 0 1 -0.03399,0.225195 5.4528546,5.4528546 0 0 0 0.03399,-0.225195 z m -0.09219,0.545312 a 5.4528546,5.4528546 0 0 1 -0.04863,0.190625 5.4528546,5.4528546 0 0 0 0.04863,-0.190625 z m 4.556445,0.340625 a 10,10 0 0 1 -0.112109,0.582032 10,10 0 0 0 0.112109,-0.582032 z m -4.704687,0.195899 a 5.4528546,5.4528546 0 0 1 -0.05488,0.150195 5.4528546,5.4528546 0 0 0 0.05488,-0.150195 z m -0.200391,0.514844 a 5.4528546,5.4528546 0 0 1 -0.05898,0.121875 5.4528546,5.4528546 0 0 0 0.05898,-0.121875 z m 4.707032,0.254492 a 10,10 0 0 1 -0.182422,0.611133 10,10 0 0 0 0.182422,-0.611133 z m -4.958008,0.236523 a 5.4528546,5.4528546 0 0 1 -0.05898,0.09609 5.4528546,5.4528546 0 0 0 0.05898,-0.09609 z m -0.3,0.463867 a 5.4528546,5.4528546 0 0 1 -0.05293,0.06973 5.4528546,5.4528546 0 0 0 0.05293,-0.06973 z m 4.966015,0.240235 a 10,10 0 0 1 -0.261914,0.636523 10,10 0 0 0 0.261914,-0.636523 z m -5.311718,0.191406 a 5.4528546,5.4528546 0 0 1 -0.0416,0.04453 5.4528546,5.4528546 0 0 0 0.0416,-0.04453 z m -0.385352,0.392383 a 5.4528546,5.4528546 0 0 1 -0.03359,0.0293 5.4528546,5.4528546 0 0 0 0.03359,-0.0293 z m 5.315039,0.321289 a 10,10 0 0 1 -0.346289,0.649023 10,10 0 0 0 0.346289,-0.649023 z m -5.738086,0.03008 a 5.4528546,5.4528546 0 0 1 -0.02246,0.01602 5.4528546,5.4528546 0 0 0 0.02246,-0.01602 z m 5.266797,0.836914 a 10,10 0 0 1 -0.430273,0.642578 10,10 0 0 0 0.430273,-0.642578 z m -0.555078,0.816992 a 10,10 0 0 1 -0.51875,0.628321 10,10 0 0 0 0.51875,-0.628321 z m -0.631445,0.756641 a 10,10 0 0 1 -0.609766,0.604101 10,10 0 0 0 0.609766,-0.604101 z m -0.703711,0.691601 a 10,10 0 0 1 -0.695703,0.563282 10,10 0 0 0 0.695703,-0.563282 z m -0.770313,0.619922 a 10,10 0 0 1 -0.771484,0.50625 10,10 0 0 0 0.771484,-0.50625 z m -0.830664,0.542578 a 10,10 0 0 1 -0.839258,0.4375 10,10 0 0 0 0.839258,-0.4375 z m -0.880469,0.457422 a 10,10 0 0 1 -0.896484,0.358789 10,10 0 0 0 0.896484,-0.358789 z m -0.923632,0.36875 a 10,10 0 0 1 -0.94375,0.271875 10,10 0 0 0 0.94375,-0.271875 z M 14.282422,21.725 a 10,10 0 0 1 -0.975586,0.17832 10,10 0 0 0 0.975586,-0.17832 z"
     id="path941" />
  <path
     inkscape:connector-curvature="0"
     style="fill:url(#radialGradient4730);fill-opacity:1;stroke-width:1.81761813"
     d="M 12,7.6638672 A 4.3361075,4.3361075 0 0 0 7.663867,12 4.3361075,4.3361075 0 0 0 12,16.336133 4.3361075,4.3361075 0 0 0 16.336133,12 4.3361075,4.3361075 0 0 0 12,7.6638672 Z"
     id="path955" />
  <path
     inkscape:connector-curvature="0"
     style="fill:url(#radialGradient4738);fill-opacity:1;stroke:none;stroke-width:0.1px;stroke-linecap:butt;stroke-linejoin:miter;stroke-opacity:1"
     d="M 12,2 C 8.34602,2.004368 4.985339,4.0013526 3.23457,7.2085938 L 6.505273,12.194336 6.55293,12.166016 A 5.4528546,5.4528546 0 0 1 6.54707,12 5.4528546,5.4528546 0 0 1 12,6.5470703 a 5.4528546,5.4528546 0 0 1 3.531836,1.3 h 5.553711 C 19.46117,4.288912 15.911403,2.0044328 12,2 Z"
     id="path4662" />
  <path
     inkscape:connector-curvature="0"
     style="fill:url(#radialGradient4746);fill-opacity:1;stroke:none;stroke-width:0.1px;stroke-linecap:butt;stroke-linejoin:miter;stroke-opacity:0.62189056"
     d="M 15.531836,7.8470703 A 5.4528546,5.4528546 0 0 1 17.45293,12 5.4528546,5.4528546 0 0 1 14.807227,16.668164 l -0.0061,0.07305 -2.764258,5.209961 0.269531,0.0334 A 10,10 0 0 0 22,12 10,10 0 0 0 21.085547,7.8470703 Z"
     id="path4675" />
</svg>
