<?xml version="1.0" encoding="UTF-8" standalone="no"?>
<svg
   xmlns:dc="http://purl.org/dc/elements/1.1/"
   xmlns:cc="http://creativecommons.org/ns#"
   xmlns:rdf="http://www.w3.org/1999/02/22-rdf-syntax-ns#"
   xmlns:svg="http://www.w3.org/2000/svg"
   xmlns="http://www.w3.org/2000/svg"
   xmlns:xlink="http://www.w3.org/1999/xlink"
   xmlns:sodipodi="http://sodipodi.sourceforge.net/DTD/sodipodi-0.dtd"
   xmlns:inkscape="http://www.inkscape.org/namespaces/inkscape"
   height="48"
   viewBox="0 0 48 48"
   width="48"
   version="1.1"
   id="svg6"
   sodipodi:docname="key_colored.svg"
   inkscape:version="0.92.3 (2405546, 2018-03-11)">
  <metadata
     id="metadata12">
    <rdf:RDF>
      <cc:Work
         rdf:about="">
        <dc:format>image/svg+xml</dc:format>
        <dc:type
           rdf:resource="http://purl.org/dc/dcmitype/StillImage" />
        <dc:title />
      </cc:Work>
    </rdf:RDF>
  </metadata>
  <defs
     id="defs10">
    <linearGradient
       inkscape:collect="always"
       id="linearGradient2790">
      <stop
         style="stop-color:#6d5726;stop-opacity:1"
         offset="0"
         id="stop2786" />
      <stop
         style="stop-color:#c19c4c;stop-opacity:1"
         offset="1"
         id="stop2788" />
    </linearGradient>
    <linearGradient
       inkscape:collect="always"
       xlink:href="#linearGradient2790"
       id="linearGradient2792"
       x1="65.152542"
       y1="23.59322"
       x2="103.55932"
       y2="24.305084"
       gradientUnits="userSpaceOnUse"
       gradientTransform="translate(-60)" />
  </defs>
  <sodipodi:namedview
     pagecolor="#ffffff"
     bordercolor="#666666"
     borderopacity="1"
     objecttolerance="10"
     gridtolerance="10"
     guidetolerance="10"
     inkscape:pageopacity="0"
     inkscape:pageshadow="2"
     inkscape:window-width="1896"
     inkscape:window-height="979"
     id="namedview8"
     showgrid="false"
     inkscape:zoom="9.8333333"
     inkscape:cx="23.066395"
     inkscape:cy="34.98151"
     inkscape:window-x="8"
     inkscape:window-y="48"
     inkscape:window-maximized="0"
     inkscape:current-layer="svg6"
     inkscape:pagecheckerboard="true" />
  <path
     style="fill:url(#linearGradient2792);fill-opacity:1"
     id="path2768"
     d="M 25.3,20 C 23.65,15.34 19.22,12 14,12 7.37,12 2,17.37 2,24 c 0,6.63 5.37,12 12,12 5.22,0 9.65,-3.34 11.3,-8 H 34 v 8 h 8 v -8 h 4 V 20 Z M 14,28 c -2.21,0 -4,-1.79 -4,-4 0,-2.21 1.79,-4 4,-4 2.21,0 4,1.79 4,4 0,2.21 -1.79,4 -4,4 z"
     inkscape:connector-curvature="0" />
  <path
     d="M0 0h48v48h-48z"
     fill="none"
     id="path2" />
</svg>
