<?xml version="1.0" encoding="UTF-8" standalone="no"?>
<svg
   xmlns:dc="http://purl.org/dc/elements/1.1/"
   xmlns:cc="http://creativecommons.org/ns#"
   xmlns:rdf="http://www.w3.org/1999/02/22-rdf-syntax-ns#"
   xmlns:svg="http://www.w3.org/2000/svg"
   xmlns="http://www.w3.org/2000/svg"
   xmlns:sodipodi="http://sodipodi.sourceforge.net/DTD/sodipodi-0.dtd"
   xmlns:inkscape="http://www.inkscape.org/namespaces/inkscape"
   viewBox="0 0 40 40"
   version="1.1"
   id="svg7"
   sodipodi:docname="slack_modified.svg"
   inkscape:version="0.92.3 (2405546, 2018-03-11)">
  <metadata
     id="metadata13">
    <rdf:RDF>
      <cc:Work
         rdf:about="">
        <dc:format>image/svg+xml</dc:format>
        <dc:type
           rdf:resource="http://purl.org/dc/dcmitype/StillImage" />
        <dc:title />
      </cc:Work>
    </rdf:RDF>
  </metadata>
  <defs
     id="defs11" />
  <sodipodi:namedview
     pagecolor="#ffffff"
     bordercolor="#666666"
     borderopacity="1"
     objecttolerance="10"
     gridtolerance="10"
     guidetolerance="10"
     inkscape:pageopacity="0"
     inkscape:pageshadow="2"
     inkscape:window-width="940"
     inkscape:window-height="979"
     id="namedview9"
     showgrid="false"
     inkscape:zoom="8.34386"
     inkscape:cx="41.379076"
     inkscape:cy="35.644722"
     inkscape:window-x="8"
     inkscape:window-y="48"
     inkscape:window-maximized="0"
     inkscape:current-layer="svg7"
     inkscape:pagecheckerboard="true" />
  <g
     transform="matrix(1.3710816,0,0,1.3710816,-8.022023,-7.1676725)"
     style="fill:#ffffff;fill-opacity:1;stroke:none;stroke-opacity:1"
     id="g5339">
    <path
       style="fill:#e6512c;fill-opacity:1;stroke:none;stroke-opacity:1"
       d="M 13,23.17 A 2.52,2.52 0 1 1 10.48,20.64 H 13 Z"
       id="path5355"
       inkscape:connector-curvature="0" />
    <path
       style="fill:#cc3d19;fill-opacity:1;stroke:none;stroke-opacity:1"
       d="m 14.27,29.48 a 2.53,2.53 0 0 0 5,0 v -6.31 a 2.53,2.53 0 1 0 -5,0 z"
       id="path5353"
       inkscape:connector-curvature="0" />
    <path
       style="fill:#99dae4;fill-opacity:1;stroke:none;stroke-opacity:1"
       d="M 19.27,13.04 V 10.52 A 2.53,2.53 0 1 0 16.83,13 Z"
       id="path5351"
       inkscape:connector-curvature="0" />
    <path
       style="fill:#79cedb;fill-opacity:1;stroke:none;stroke-opacity:1"
       d="m 10.43,14.31 a 2.53,2.53 0 0 0 0,5 h 6.31 a 2.53,2.53 0 1 0 0,-5 z"
       id="path5349"
       inkscape:connector-curvature="0" />
    <path
       style="fill:#5cdc73;fill-opacity:1;stroke:none;stroke-opacity:1"
       d="m 26.87,19.31 h 2.52 A 2.53,2.53 0 1 0 27,16.83 Z"
       id="path5347"
       inkscape:connector-curvature="0" />
    <path
       style="fill:#2ac446;fill-opacity:1;stroke:none;stroke-opacity:1"
       d="m 25.6,10.47 a 2.53,2.53 0 0 0 -5.05,0 v 6.31 a 2.53,2.53 0 1 0 5.05,0 z"
       id="path5345"
       inkscape:connector-curvature="0" />
    <path
       style="fill:#e8df74;fill-opacity:1;stroke:none;stroke-opacity:1"
       d="m 20.64,27 v 2.52 A 2.53,2.53 0 1 0 23.17,27 Z"
       id="path5343"
       inkscape:connector-curvature="0" />
    <path
       style="fill:#ddcf30;fill-opacity:1;stroke:none;stroke-opacity:1"
       d="m 29.48,25.73 a 2.53,2.53 0 0 0 0,-5.05 h -6.31 a 2.53,2.53 0 1 0 0,5.05 z"
       id="path5337"
       inkscape:connector-curvature="0" />
  </g>
</svg>
